# xmcd
#
# Track frame offsets:
#	150
#	11987
#	22288
#	33017
#	51729
#
# Disc length: 843 seconds
#
# Revision: 0
# Processed by: cddbd v1.5PL3 Copyright (c) Steve Scherf et al.
# Submitted via: dBpowerAMP V4.0
#
DISCID=42034905
DTITLE=Aretha Franklin - Grandes mitos 2
DYEAR=1900
DGENRE=
TTITLE0=over the rainbow
TTITLE1=don't let me loose this dream
TTITLE2=sweet sweet baby
TTITLE3=ain't no way
TTITLE4=you made me love
EXTD=
EXTT0=
EXTT1=
EXTT2=
EXTT3=
EXTT4=
PLAYORDER=
